<?xml version="1.0" standalone="no"?><!DOCTYPE svg PUBLIC "-//W3C//DTD SVG 1.1//EN" "http://www.w3.org/Graphics/SVG/1.1/DTD/svg11.dtd"><svg t="1787206951155" class="icon" viewBox="0 0 1024 1024" version="1.1" xmlns="http://www.w3.org/2000/svg" p-id="26770" width="32" height="32" xmlns:xlink="http://www.w3.org/1999/xlink"><path d="M844.8 256H716.8c0-56.32-46.08-102.4-102.4-102.4H409.6c-56.32 0-102.4 46.08-102.4 102.4H179.2c-14.0288 0-25.6 11.4688-25.6 25.6 0 14.0288 11.5712 25.6 25.6 25.6h665.6c14.0288 0 25.6-11.5712 25.6-25.6 0-14.1312-11.5712-25.6-25.6-25.6z m-486.4 0c0-28.2624 22.9376-51.2 51.2-51.2h204.8c28.2624 0 51.2 22.9376 51.2 51.2H358.4zM460.8 691.2V435.2c0-14.1312-11.5712-25.6-25.6-25.6s-25.6 11.4688-25.6 25.6v256c0 14.0288 11.5712 25.6 25.6 25.6s25.6-11.5712 25.6-25.6zM614.4 691.2V435.2c0-14.1312-11.5712-25.6-25.6-25.6s-25.6 11.4688-25.6 25.6v256c0 14.0288 11.5712 25.6 25.6 25.6s25.6-11.5712 25.6-25.6z" p-id="26771" fill="#cdcdcd"></path><path d="M742.4 358.4c-14.0288 0-25.6 11.4688-25.6 25.6v384c0 28.16-22.9376 51.2-51.2 51.2H358.4c-28.2624 0-51.2-23.04-51.2-51.2V384c0-14.1312-11.5712-25.6-25.6-25.6s-25.6 11.4688-25.6 25.6v384c0 56.32 46.08 102.4 102.4 102.4h307.2c56.32 0 102.4-46.08 102.4-102.4V384c0-14.1312-11.5712-25.6-25.6-25.6z" p-id="26772" fill="#cdcdcd"></path></svg>